<svg width="211" height="211" viewBox="0 0 211 211" fill="none" xmlns="http://www.w3.org/2000/svg">
<g clip-path="url(#clip0_22_6491)">
<path d="M144.204 75.36C128.929 65.9889 104.253 65.9889 89.0674 75.36C73.8822 84.7311 73.9726 99.9652 89.2482 109.336C104.524 118.707 129.2 118.707 144.385 109.336C159.57 99.9171 159.48 84.7311 144.204 75.36ZM137.199 90.1135C135.888 90.546 134.578 91.0266 133.267 91.4591C132.454 91.6994 131.957 91.7474 131.595 91.5552C131.414 91.411 131.233 91.2188 131.053 90.9305C130.194 89.4407 128.883 88.1432 127.121 87.0859C126.895 86.9417 126.624 86.7976 126.352 86.6534C125.765 86.317 125.223 86.0767 124.499 85.8845C121.969 85.2597 119.709 86.2689 120.025 87.9509C120.161 88.816 120.613 89.5849 121.155 90.4018C122.059 91.7474 123.053 93.093 123.686 94.5347C125.81 99.0521 121.2 103.521 113.789 103.954C111.122 104.098 108.591 103.762 106.241 102.945C105.202 102.608 104.433 102.608 103.665 103.185C102.897 103.714 102.038 104.194 101.225 104.675C100.501 105.107 99.7332 105.155 99.0101 104.723C98.4678 104.434 97.9706 104.098 97.4283 103.81C97.0668 103.569 96.7052 103.377 96.3436 103.137C95.5753 102.656 95.6657 102.176 96.3888 101.695C96.9764 101.311 97.5639 100.974 98.1062 100.59C99.4168 99.7729 99.4168 99.7249 98.3322 98.8118C96.9764 97.6584 95.7561 96.457 94.9878 95.1114C94.4003 94.0542 94.5359 93.8139 96.1177 93.2372C97.2927 92.8527 98.4226 92.4202 99.5976 92.0358C100.456 91.7474 100.953 91.6994 101.315 91.8916C101.541 92.0358 101.677 92.228 101.857 92.5644C102.626 94.1022 103.936 95.4478 105.518 96.7454C105.789 96.9856 106.106 97.1779 106.377 97.3701C107.235 97.8987 108.23 98.2832 109.36 98.5715C112.297 99.2924 114.918 98.0429 114.647 96.0726C114.557 95.3998 114.24 94.8231 113.834 94.1983C112.839 92.6125 111.529 91.1227 110.851 89.4407C109.766 86.7495 110.263 84.2986 113.743 82.3763C117.72 80.2138 122.149 80.0696 126.85 81.4152C128.793 81.9919 128.748 81.9919 130.239 81.0788C130.736 80.7424 131.233 80.454 131.731 80.1657C132.86 79.4929 133.267 79.4929 134.397 80.1657C134.759 80.3579 135.075 80.5982 135.436 80.7904C137.832 82.2322 137.832 82.2322 135.482 83.7219C133.809 84.7311 133.809 84.7311 135.21 85.9325C136.295 86.8456 137.154 87.8068 137.787 88.864C138.284 89.3926 138.103 89.8251 137.199 90.1135ZM164.587 121.735C160.384 124.33 153.559 124.33 149.311 121.735C145.108 119.14 145.063 114.911 149.266 112.316C153.469 109.721 160.293 109.721 164.541 112.316C168.79 114.911 168.835 119.14 164.587 121.735ZM84.1413 72.3324C79.9382 74.9275 73.1139 74.9275 68.8657 72.3324C64.6175 69.7373 64.6175 65.5083 68.8205 62.9133C73.0235 60.3182 79.8478 60.3182 84.0961 62.9133C88.2991 65.5083 88.3443 69.7373 84.1413 72.3324ZM221.757 101.599L101.315 27.6394C94.3551 23.3624 83.0566 23.3624 76.1419 27.6394L11.5597 67.5267C4.64503 71.8038 4.69022 78.7721 11.6501 83.0491L132.092 157.009C139.052 161.286 150.35 161.286 157.265 157.009L221.802 117.122C228.762 112.844 228.717 105.876 221.757 101.599ZM158.576 142.928C157.807 142.159 156.904 141.438 155.819 140.766C148.769 136.44 137.335 136.44 130.33 140.766C129.787 141.102 129.335 141.438 128.838 141.823L35.3318 84.3947C36.2356 84.0103 37.0943 83.5777 37.9078 83.0972C44.9129 78.7721 44.8677 71.7557 37.8174 67.4306C37.0491 66.95 36.2356 66.5175 35.3769 66.1811L73.9274 42.3449C74.5149 42.8735 75.1929 43.3541 75.9612 43.8346C83.0114 48.1598 94.4455 48.1598 101.451 43.8346C102.264 43.3541 102.942 42.8254 103.575 42.2488L197.397 99.821C196.132 100.302 195.002 100.83 193.917 101.503C186.912 105.828 186.912 112.892 194.008 117.218C195.093 117.89 196.313 118.419 197.578 118.9L158.576 142.928ZM8.48652 97.8507C11.5597 96.1687 16.3051 96.409 19.2427 98.2351L145.153 175.511L213.215 133.413C216.153 131.587 220.989 131.587 223.971 133.413C226.954 135.239 226.954 138.219 224.017 140.045L151.661 184.738C148.136 186.948 142.351 186.948 138.781 184.738L136.25 183.2L134.487 182.095L8.26055 104.627C5.18735 102.752 5.23255 99.6288 8.48652 97.8507ZM224.107 164.217L151.751 208.91C148.226 211.121 142.442 211.121 138.871 208.91L136.386 207.372L134.578 206.267L8.35093 128.799C5.27774 126.925 5.36813 123.801 8.6221 122.023C11.6501 120.341 16.4407 120.582 19.3783 122.408L145.244 199.683L213.306 157.634C216.288 155.807 221.079 155.807 224.062 157.634C227.045 159.412 227.09 162.391 224.107 164.217Z" fill="url(#paint0_linear_22_6491)"/>
</g>
<defs>
<linearGradient id="paint0_linear_22_6491" x1="25" y1="67" x2="189" y2="197" gradientUnits="userSpaceOnUse">
<stop stop-color="#414141"/>
<stop offset="1" stop-color="#262626"/>
</linearGradient>
<clipPath id="clip0_22_6491">
<rect width="211" height="211" fill="white"/>
</clipPath>
</defs>
</svg>
