<svg width="156" height="189" viewBox="0 0 156 189" fill="none" xmlns="http://www.w3.org/2000/svg">
<g clip-path="url(#clip0_22_6483)">
<path d="M145.738 70.6874L123.868 42.0424C121.562 39.019 118.015 37.2496 114.26 37.2496H80.4633C76.7088 37.2496 73.1612 39.019 70.855 42.0424L48.9851 70.6874C50.5003 93.6021 61.3074 112.711 79.1064 120.434V120.428C84.6499 122.824 90.7654 124.165 97.3617 124.165C103.958 124.165 110.073 122.824 115.617 120.422V120.428C133.416 112.711 144.217 93.6021 145.738 70.6874ZM79.1064 86.9158C75.7474 86.9158 73.0213 84.1345 73.0213 80.7075C73.0213 77.2806 75.7474 74.4993 79.1064 74.4993C82.4653 74.4993 85.1915 77.2806 85.1915 80.7075C85.1915 84.1345 82.4653 86.9158 79.1064 86.9158ZM115.617 86.9158C112.258 86.9158 109.532 84.1345 109.532 80.7075C109.532 77.2806 112.258 74.4993 115.617 74.4993C118.976 74.4993 121.702 77.2806 121.702 80.7075C121.702 84.1345 118.976 86.9158 115.617 86.9158ZM48.6808 60.9776V31.0413C48.6808 17.3273 59.5793 6.20825 73.0213 6.20825H121.702C135.144 6.20825 146.043 17.3273 146.043 31.0413V60.9776L128.67 38.2305C125.213 33.6923 119.895 31.0413 114.26 31.0413H80.4573C74.8225 31.0413 69.5041 33.6923 66.0477 38.2305L48.6808 60.9776ZM168.637 177.401L166.58 167.748C164.931 158.516 158.45 151.109 149.821 148.477L121.002 137.762L115.769 142.381C110.652 146.919 104.08 149.427 97.2643 149.427C90.4734 149.427 83.9258 146.937 78.8204 142.405L73.6359 137.836L45.0967 148.415C36.2916 151.116 29.7927 158.522 28.1497 167.76L26.3485 177.817C24.9854 185.441 30.7237 192.456 38.3179 192.456H156.74C164.505 192.456 170.286 185.143 168.637 177.401ZM146.043 173.832C146.043 177.259 143.316 180.04 139.957 180.04H121.702C118.343 180.04 115.617 177.259 115.617 173.832V167.623C115.617 164.196 118.343 161.415 121.702 161.415H139.957C143.316 161.415 146.043 164.196 146.043 167.623V173.832ZM97.3617 130.374C103.891 130.374 109.994 129.225 115.617 127.152V134.304L111.783 137.693C103.763 144.802 90.8263 144.82 82.8122 137.718L79.1064 134.453V127.158C84.729 129.225 90.8324 130.374 97.3617 130.374ZM121.702 167.623H139.957V173.832H121.702V167.623Z" fill="url(#paint0_linear_22_6483)"/>
</g>
<defs>
<linearGradient id="paint0_linear_22_6483" x1="-11" y1="29" x2="134" y2="192" gradientUnits="userSpaceOnUse">
<stop stop-color="#414141"/>
<stop offset="1" stop-color="#262626"/>
</linearGradient>
<clipPath id="clip0_22_6483">
<rect width="156" height="189" fill="white"/>
</clipPath>
</defs>
</svg>
