<svg width="183" height="189" viewBox="0 0 183 189" fill="none" xmlns="http://www.w3.org/2000/svg">
<g clip-path="url(#clip0_22_6487)">
<path fill-rule="evenodd" clip-rule="evenodd" d="M171.329 75.432C171.329 32.97 137.706 0 96.3728 0C55.0396 0 21.4162 32.97 21.4162 73.5C8.96267 79.7685 7.62939e-06 91.308 7.62939e-06 105V126C7.62939e-06 134.354 3.38451 142.366 9.40898 148.274C15.4334 154.181 23.6044 157.5 32.1243 157.5H42.8324C45.6723 157.5 48.396 156.394 50.4041 154.425C52.4123 152.455 53.5404 149.785 53.5404 147V84C53.5404 81.2152 52.4123 78.5445 50.4041 76.5754C48.396 74.6063 45.6723 73.5 42.8324 73.5C42.8324 59.5761 48.4732 46.2226 58.514 36.3769C68.5548 26.5312 82.173 21 96.3728 21C110.573 21 124.191 26.5312 134.232 36.3769C144.272 46.2226 149.913 59.5761 149.913 73.5C147.073 73.5 144.35 74.6063 142.341 76.5754C140.333 78.5445 139.205 81.2152 139.205 84V147C139.205 149.785 140.333 152.455 142.341 154.425C144.35 156.394 147.073 157.5 149.913 157.5V168H122.158C119.952 161.9 114.063 157.5 107.081 157.5H85.6647C81.4048 157.5 77.3193 159.159 74.3071 162.113C71.2948 165.067 69.6026 169.073 69.6026 173.25C69.6026 177.427 71.2948 181.433 74.3071 184.387C77.3193 187.341 81.4048 189 85.6647 189H149.913C155.593 189 161.04 186.788 165.057 182.849C169.073 178.911 171.329 173.57 171.329 168V155.579C177.58 153.425 182.996 149.424 186.831 144.126C190.666 138.829 192.733 132.496 192.746 126V105C192.734 98.5046 190.668 92.1727 186.832 86.877C182.996 81.5814 177.58 77.5826 171.329 75.432L-74.9566 651L171.329 75.432Z" fill="url(#paint0_linear_22_6487)"/>
</g>
<defs>
<linearGradient id="paint0_linear_22_6487" x1="34.6508" y1="40.5763" x2="153.844" y2="193.825" gradientUnits="userSpaceOnUse">
<stop stop-color="#414141"/>
<stop offset="1" stop-color="#262626"/>
</linearGradient>
<clipPath id="clip0_22_6487">
<rect width="183" height="189" fill="white"/>
</clipPath>
</defs>
</svg>
