<svg width="1920" height="1354" viewBox="0 0 1920 1354" fill="none" xmlns="http://www.w3.org/2000/svg">
<path d="M3139.93 990.249C2614.18 1384.28 2099.61 697.211 1703.89 693.136C1133.62 687.264 1019.58 1367.84 725.477 1081.27C431.401 794.73 155.771 545.823 -84.5507 1041.45C-324.873 1537.08 -573.37 1294.07 -573.37 1294.07" stroke="white" stroke-opacity="0.1" stroke-width="0.6687" stroke-miterlimit="10"/>
<path d="M-573.46 1285.36C-570.136 1283.83 -315.29 1532.85 -74.3088 1044.72C166.672 556.608 435.952 787.75 730.418 1070.3C1025.42 1352.92 1141.23 698.499 1714.23 703.202C2111.17 706.528 2619.27 1366.04 3138.16 975.03" stroke="white" stroke-opacity="0.1" stroke-width="0.6738" stroke-miterlimit="10"/>
<path d="M-573.55 1276.64C-566.902 1273.58 -305.707 1528.57 -64.067 1047.98C177.573 567.394 440.504 780.769 735.329 1059.34C1031.23 1337.99 1148.77 709.764 1724.53 713.269C2122.7 715.846 2624.3 1347.76 3136.39 959.78" stroke="white" stroke-opacity="0.1" stroke-width="0.679" stroke-miterlimit="10"/>
<path d="M-573.64 1267.92C-563.667 1263.33 -296.094 1524.32 -53.8253 1051.25C188.443 578.18 445.056 773.788 740.24 1048.37C1037.04 1323.1 1156.35 721.029 1734.86 723.336C2134.26 725.133 2629.4 1329.46 3134.63 944.56" stroke="white" stroke-opacity="0.1" stroke-width="0.6841" stroke-miterlimit="10"/>
<path d="M-573.729 1259.17C-560.433 1253.09 -286.511 1520 -43.5835 1054.48C199.344 588.965 449.608 766.778 745.152 1037.41C1042.88 1308.21 1163.9 732.264 1745.16 733.432C2145.82 734.481 2634.43 1311.21 3132.83 929.371" stroke="white" stroke-opacity="0.1" stroke-width="0.6893" stroke-miterlimit="10"/>
<path d="M-573.819 1250.45C-557.199 1242.84 -276.928 1515.75 -33.3418 1057.75C210.244 599.751 453.621 760.426 750.063 1026.44C1048.12 1293.92 1171.44 743.529 1755.46 743.499C2157.35 743.798 2639.49 1292.94 3131.06 914.151" stroke="white" stroke-opacity="0.1" stroke-width="0.6944" stroke-miterlimit="10"/>
<path d="M-573.909 1241.73C-553.935 1232.6 -267.345 1511.49 -23.1 1061.01C221.145 610.536 458.083 753.565 755.004 1015.48C1053.87 1279.12 1179.05 754.794 1765.79 753.565C2168.91 753.116 2644.55 1274.66 3129.3 898.901" stroke="white" stroke-opacity="0.1" stroke-width="0.6996" stroke-miterlimit="10"/>
<path d="M-573.999 1233.02C-550.7 1222.35 -257.732 1507.21 -12.8583 1064.28C232.016 621.352 462.545 746.704 759.915 1004.51C1059.59 1264.35 1186.6 766.029 1776.1 763.632C2180.44 762.404 2649.61 1256.38 3127.53 883.682" stroke="white" stroke-opacity="0.1" stroke-width="0.7047" stroke-miterlimit="10"/>
<path d="M-574.089 1224.3C-547.466 1212.1 -248.149 1502.95 -2.61647 1067.55C242.916 632.137 467.037 739.844 764.827 993.545C1065.34 1249.58 1194.17 777.294 1786.43 773.728C2192.03 771.751 2654.7 1238.14 3125.76 868.492" stroke="white" stroke-opacity="0.1" stroke-width="0.7099" stroke-miterlimit="10"/>
<path d="M-574.149 1215.58C-544.202 1201.86 -238.536 1498.7 7.65514 1070.81C253.847 642.923 471.529 732.983 769.768 982.609C1071.09 1234.81 1201.75 788.589 1796.73 783.825C2203.55 781.099 2659.73 1219.89 3123.99 853.272" stroke="white" stroke-opacity="0.1" stroke-width="0.715" stroke-miterlimit="10"/>
<path d="M-574.239 1206.83C-540.968 1191.58 -228.924 1494.39 17.8969 1074.05C264.747 653.709 476.021 726.092 774.679 971.614C1076.84 1220.01 1209.33 799.794 1807.06 793.861C2215.11 790.386 2664.82 1201.59 3122.23 838.022" stroke="white" stroke-opacity="0.1" stroke-width="0.7201" stroke-miterlimit="10"/>
<path d="M-574.328 1198.11C-537.734 1181.33 -219.341 1490.13 28.1386 1077.31C275.618 664.494 480.513 719.231 779.59 960.649C1082.56 1205.21 1216.87 811.059 1817.36 803.958C2226.64 799.734 2669.85 1183.34 3120.46 822.833" stroke="white" stroke-opacity="0.1" stroke-width="0.7253" stroke-miterlimit="10"/>
<path d="M-574.418 1189.39C-534.499 1171.12 -209.758 1485.85 38.3805 1080.58C286.519 675.28 484.975 712.34 784.532 949.683C1088.34 1190.41 1224.45 822.323 1827.69 814.025C2238.2 809.021 2674.94 1165.04 3118.69 807.613" stroke="white" stroke-opacity="0.1" stroke-width="0.7304" stroke-miterlimit="10"/>
<path d="M-574.508 1180.68C-531.265 1160.87 -200.145 1481.59 48.6222 1083.84C297.389 686.095 489.497 705.479 789.443 938.748C1094.09 1175.67 1232.02 833.588 1838 824.121C2249.76 818.369 2679.98 1146.79 3116.9 792.393" stroke="white" stroke-opacity="0.1" stroke-width="0.7356" stroke-miterlimit="10"/>
<path d="M-574.598 1171.96C-528.031 1150.63 -190.562 1477.34 58.864 1087.11C308.29 696.881 493.989 698.619 794.354 927.783C1099.87 1160.87 1239.57 844.853 1848.3 834.188C2261.29 827.686 2685.04 1128.51 3115.13 777.174" stroke="white" stroke-opacity="0.1" stroke-width="0.7407" stroke-miterlimit="10"/>
<path d="M-574.688 1163.21C-524.796 1140.35 -180.979 1473.02 69.1058 1090.35C319.19 707.667 498.481 691.698 799.265 916.787C1105.62 1146.04 1247.15 856.088 1858.6 844.254C2272.82 837.004 2690.1 1110.24 3113.33 761.954" stroke="white" stroke-opacity="0.1" stroke-width="0.7459" stroke-miterlimit="10"/>
<path d="M-574.777 1154.49C-521.562 1130.1 -171.396 1468.77 79.3476 1093.61C330.091 718.452 503.003 684.807 804.177 905.822C1111.37 1131.24 1254.69 867.323 1868.93 854.321C2284.38 846.291 2695.16 1091.96 3111.6 746.734" stroke="white" stroke-opacity="0.1" stroke-width="0.751" stroke-miterlimit="10"/>
<path d="M-574.867 1145.77C-518.328 1119.86 -161.783 1464.52 89.5892 1096.88C340.962 729.238 507.495 677.946 809.088 894.857C1117.15 1116.44 1262.24 878.588 1879.23 864.387C2295.94 855.609 2700.22 1073.69 3109.8 731.485" stroke="white" stroke-opacity="0.1" stroke-width="0.7562" stroke-miterlimit="10"/>
<path d="M-574.957 1137.05C-515.094 1109.61 -152.2 1460.23 99.831 1100.14C351.862 740.053 512.017 671.055 814.029 883.921C1122.96 1101.67 1269.85 889.883 1889.56 874.484C2307.5 864.956 2705.28 1055.44 3108.06 716.295" stroke="white" stroke-opacity="0.1" stroke-width="0.7613" stroke-miterlimit="10"/>
<path d="M-575.017 1128.33C-511.8 1099.39 -142.587 1455.98 110.103 1103.41C362.793 750.839 516.569 664.165 818.97 872.956C1128.77 1086.87 1277.42 901.148 1899.9 884.58C2319.06 874.304 2710.37 1037.2 3106.3 701.105" stroke="white" stroke-opacity="0.1" stroke-width="0.7664" stroke-miterlimit="10"/>
<path d="M-575.107 1119.62C-508.565 1089.15 -132.974 1451.69 120.344 1106.67C373.693 761.625 521.121 657.274 823.881 861.99C1134.55 1072.04 1285 912.383 1910.2 894.647C2330.59 883.592 2715.4 1018.92 3104.53 685.886" stroke="white" stroke-opacity="0.1" stroke-width="0.7716" stroke-miterlimit="10"/>
<path d="M-575.197 1110.87C-505.331 1078.87 -123.391 1447.41 130.586 1109.91C384.564 772.41 525.643 650.353 828.793 850.995C1140.36 1057.21 1292.55 923.618 1920.5 904.683C2342.15 892.879 2720.46 1000.59 3102.73 670.606" stroke="white" stroke-opacity="0.1" stroke-width="0.7767" stroke-miterlimit="10"/>
<path d="M-575.287 1102.15C-502.097 1068.62 -113.808 1443.15 140.828 1113.18C395.465 783.196 530.195 643.462 833.704 840.06C1146.14 1042.41 1300.09 934.913 1930.83 914.78C2353.71 902.227 2725.55 982.34 3100.97 655.416" stroke="white" stroke-opacity="0.1" stroke-width="0.7819" stroke-miterlimit="10"/>
<path d="M-575.376 1093.43C-498.863 1058.38 -104.196 1438.87 151.07 1116.44C406.335 794.011 534.717 636.541 838.615 829.094C1151.95 1027.61 1307.67 946.148 1941.13 924.876C2365.24 911.574 2730.59 964.094 3099.2 640.227" stroke="white" stroke-opacity="0.1" stroke-width="0.787" stroke-miterlimit="10"/>
<path d="M-575.466 1084.71C-495.628 1048.13 -94.6127 1434.62 161.312 1119.71C417.236 804.797 539.268 629.621 843.556 818.099C1157.79 1012.75 1315.25 957.383 1951.46 934.913C2376.8 920.832 2735.68 945.789 3097.43 624.947" stroke="white" stroke-opacity="0.1" stroke-width="0.7922" stroke-miterlimit="10"/>
<path d="M-575.556 1075.99C-492.394 1037.89 -85.0297 1430.36 171.553 1122.97C428.136 815.582 543.82 622.73 848.468 807.164C1163.57 997.949 1322.82 968.678 1961.77 945.01C2388.36 930.18 2740.71 927.543 3095.67 609.757" stroke="white" stroke-opacity="0.1" stroke-width="0.7973" stroke-miterlimit="10"/>
<path d="M-575.646 1067.25C-489.16 1027.64 -75.4469 1426.05 181.795 1126.21C439.037 826.338 548.372 615.779 853.379 796.168C1169.41 983.089 1330.37 979.883 1972.07 955.046C2399.88 939.467 2745.77 909.237 3093.87 594.508" stroke="white" stroke-opacity="0.1" stroke-width="0.8024" stroke-miterlimit="10"/>
<path d="M-575.736 1058.53C-485.926 1017.39 -65.8339 1421.79 192.037 1129.47C449.908 837.154 552.924 608.859 858.29 785.233C1175.22 968.259 1337.95 991.178 1982.37 965.173C2411.41 948.845 2750.8 891.022 3092.1 579.348" stroke="white" stroke-opacity="0.1" stroke-width="0.8076" stroke-miterlimit="10"/>
<path d="M-575.796 1049.81C-482.662 1007.15 -56.221 1417.51 202.309 1132.74C460.838 847.939 557.536 601.938 863.232 774.268C1181.06 953.428 1345.52 1002.44 1992.7 975.239C2422.97 958.162 2755.89 872.746 3090.34 564.098" stroke="white" stroke-opacity="0.1" stroke-width="0.8127" stroke-miterlimit="10"/>
<path d="M-575.886 1041.09C-479.427 996.9 -46.6382 1413.25 212.55 1136C471.739 858.755 562.088 595.017 868.143 763.302C1186.89 938.568 1353.07 1013.68 2003.03 985.306C2434.56 967.45 2760.98 854.44 3088.6 548.878" stroke="white" stroke-opacity="0.1" stroke-width="0.8179" stroke-miterlimit="10"/>
<path d="M-575.975 1032.37C-476.193 986.654 -37.0253 1409 222.792 1139.27C482.609 869.54 566.67 588.036 873.084 752.337C1192.73 923.738 1360.68 1024.94 2013.36 995.402C2446.12 976.797 2766.04 836.195 3086.83 533.689" stroke="white" stroke-opacity="0.1" stroke-width="0.823" stroke-miterlimit="10"/>
<path d="M-576.065 1023.65C-472.929 976.408 -27.4423 1404.72 233.034 1142.54C493.51 880.326 571.251 581.115 877.995 741.401C1198.57 908.908 1368.22 1036.24 2023.66 1005.5C2457.65 986.145 2771.1 817.949 3085.03 518.499" stroke="white" stroke-opacity="0.1" stroke-width="0.8282" stroke-miterlimit="10"/>
<path d="M-576.155 1014.91C-469.695 966.131 -17.8593 1400.43 243.276 1145.77C504.411 891.112 575.833 574.165 882.906 730.406C1204.41 893.988 1375.8 1047.44 2033.97 1015.54C2469.18 995.432 2776.13 799.644 3083.27 503.219" stroke="white" stroke-opacity="0.1" stroke-width="0.8333" stroke-miterlimit="10"/>
<path d="M-576.245 1006.19C-466.46 955.915 -8.27635 1396.18 253.517 1149.04C515.311 901.897 580.415 567.214 887.818 719.441C1210.25 879.128 1383.35 1058.71 2044.27 1025.6C2480.74 1004.72 2781.2 781.368 3081.47 488" stroke="white" stroke-opacity="0.1" stroke-width="0.8385" stroke-miterlimit="10"/>
<path d="M-576.335 997.47C-463.226 945.669 1.33652 1391.89 263.759 1152.3C526.182 912.683 584.997 560.233 892.729 708.475C1216.09 864.237 1390.89 1069.97 2054.57 1035.7C2492.27 1014.07 2786.23 763.122 3079.7 472.81" stroke="white" stroke-opacity="0.1" stroke-width="0.8436" stroke-miterlimit="10"/>
<path d="M-576.425 988.751C-459.992 935.422 10.9193 1387.64 274.001 1155.57C537.082 923.498 589.579 553.283 897.64 697.51C1221.96 849.377 1398.47 1081.24 2064.9 1045.77C2503.83 1023.38 2791.32 744.847 3077.94 457.59" stroke="white" stroke-opacity="0.1" stroke-width="0.8487" stroke-miterlimit="10"/>
<path d="M-576.514 980.033C-456.758 925.176 20.5023 1383.35 284.243 1158.83C547.983 934.284 594.191 546.302 902.581 686.575C1227.83 834.517 1406.04 1092.5 2075.23 1055.86C2515.39 1032.73 2796.41 726.601 3076.2 442.371" stroke="white" stroke-opacity="0.1" stroke-width="0.8539" stroke-miterlimit="10"/>
<path d="M-576.574 971.285C-453.494 914.9 30.1452 1379.07 294.514 1162.04C558.884 945.01 598.802 539.261 907.523 675.549C1233.7 819.567 1413.62 1103.74 2085.53 1065.9C2526.92 1041.99 2801.44 708.296 3074.4 427.121" stroke="white" stroke-opacity="0.1" stroke-width="0.859" stroke-miterlimit="10"/>
<path d="M-576.664 962.566C-450.259 904.654 39.7281 1374.82 304.756 1165.31C569.784 955.795 603.414 532.281 912.434 664.584C1239.57 804.647 1421.2 1114.97 2095.87 1075.96C2538.51 1051.31 2806.53 689.99 3072.64 411.901" stroke="white" stroke-opacity="0.1" stroke-width="0.8642" stroke-miterlimit="10"/>
<path d="M-576.754 953.848C-447.025 894.407 49.311 1370.53 314.998 1168.57C580.685 966.611 607.996 525.3 917.345 653.619C1245.44 789.727 1428.77 1126.21 2106.17 1086.03C2550.04 1060.63 2811.56 671.714 3070.87 396.652" stroke="white" stroke-opacity="0.1" stroke-width="0.8693" stroke-miterlimit="10"/>
<path d="M-576.844 945.129C-443.791 884.161 58.9238 1366.28 325.239 1171.84C591.585 977.426 612.608 518.289 922.256 642.683C1251.31 774.837 1436.32 1137.5 2116.47 1096.13C2561.57 1069.97 2816.62 653.469 3069.07 381.462" stroke="white" stroke-opacity="0.1" stroke-width="0.8745" stroke-miterlimit="10"/>
<path d="M-576.934 936.411C-440.557 873.945 68.5067 1362.02 335.481 1175.1C602.456 988.212 617.219 511.279 927.197 631.718C1257.18 759.917 1443.9 1148.77 2126.83 1106.19C2573.16 1079.29 2821.71 635.193 3067.37 366.242" stroke="white" stroke-opacity="0.1" stroke-width="0.8796" stroke-miterlimit="10"/>
<path d="M-577.024 927.663C-437.322 863.668 78.0897 1357.71 345.723 1178.34C613.356 998.968 621.831 504.238 932.109 620.723C1263.05 744.967 1451.47 1160 2137.13 1116.26C2584.72 1088.58 2826.77 616.918 3065.57 351.023" stroke="white" stroke-opacity="0.1" stroke-width="0.8847" stroke-miterlimit="10"/>
<path d="M-577.113 918.944C-434.058 853.422 87.6727 1353.45 355.965 1181.6C624.257 1009.78 626.443 497.227 937.02 609.757C1268.92 730.017 1459.02 1171.24 2147.43 1126.33C2596.25 1097.9 2831.84 598.642 3063.8 335.773" stroke="white" stroke-opacity="0.1" stroke-width="0.8899" stroke-miterlimit="10"/>
<path d="M-577.203 910.226C-430.824 843.176 97.2855 1349.17 366.207 1184.87C635.128 1020.57 631.055 490.217 941.931 598.792C1274.79 715.067 1466.6 1182.5 2157.74 1136.39C2607.77 1107.21 2836.87 580.366 3062.01 320.553" stroke="white" stroke-opacity="0.1" stroke-width="0.895" stroke-miterlimit="10"/>
<path d="M-577.293 901.508C-427.59 832.929 106.869 1344.92 376.448 1188.13C646.028 1031.35 635.667 483.176 946.843 587.856C1280.66 700.147 1474.14 1193.77 2168.04 1146.49C2619.3 1116.56 2841.93 562.121 3060.24 305.364" stroke="white" stroke-opacity="0.1" stroke-width="0.9002" stroke-miterlimit="10"/>
<path d="M-577.383 892.789C-424.355 822.683 116.451 1340.66 386.69 1191.4C656.929 1042.17 640.279 476.136 951.754 576.891C1286.53 685.167 1481.69 1205.03 2178.34 1156.59C2630.86 1125.88 2846.96 543.875 3058.44 290.174" stroke="white" stroke-opacity="0.1" stroke-width="0.9053" stroke-miterlimit="10"/>
<path d="M-577.443 884.071C-421.091 812.437 126.094 1336.38 396.962 1194.67C667.83 1052.96 644.92 469.095 956.725 565.926C1292.46 670.187 1489.33 1216.3 2188.73 1166.65C2642.48 1135.2 2852.11 525.57 3056.74 274.924" stroke="white" stroke-opacity="0.1" stroke-width="0.9105" stroke-miterlimit="10"/>
<path d="M-577.533 875.323C-417.857 802.19 135.677 1332.09 407.204 1197.9C678.73 1063.71 649.532 461.995 961.636 554.93C1298.33 655.177 1496.87 1227.5 2199.03 1176.69C2654.01 1144.48 2857.14 507.264 3054.97 259.675" stroke="white" stroke-opacity="0.1" stroke-width="0.9156" stroke-miterlimit="10"/>
<path d="M-577.622 866.604C-414.623 791.944 145.26 1327.84 417.445 1201.17C689.631 1074.53 654.144 454.954 966.548 543.995C1304.23 640.227 1504.45 1238.8 2209.33 1186.82C2665.54 1153.86 2862.2 489.048 3053.17 244.515" stroke="white" stroke-opacity="0.1" stroke-width="0.9208" stroke-miterlimit="10"/>
<path d="M-577.712 857.886C-411.388 781.698 154.873 1323.55 427.687 1204.43C700.531 1085.31 658.756 447.883 971.459 533.03C1310.1 625.247 1512 1250.06 2219.64 1196.88C2677.1 1163.15 2867.26 470.773 3051.4 229.265" stroke="white" stroke-opacity="0.1" stroke-width="0.9259" stroke-miterlimit="10"/>
<path d="M-577.802 849.168C-408.154 771.451 164.456 1319.3 437.929 1207.7C711.402 1096.1 663.367 440.813 976.37 522.064C1315.97 610.237 1519.54 1261.3 2229.94 1206.95C2688.63 1172.47 2872.29 452.497 3049.61 214.046" stroke="white" stroke-opacity="0.1" stroke-width="0.931" stroke-miterlimit="10"/>
<path d="M-577.892 840.449C-404.92 761.205 174.039 1315.02 448.171 1210.96C722.302 1106.91 667.979 433.712 981.281 511.099C1321.83 595.227 1527.12 1272.56 2240.24 1217.02C2700.16 1181.78 2877.35 434.222 3047.84 198.826" stroke="white" stroke-opacity="0.1" stroke-width="0.9362" stroke-miterlimit="10"/>
<path d="M-577.982 831.701C-401.656 750.959 183.652 1310.73 458.412 1214.23C733.203 1117.7 672.591 426.612 986.222 500.134C1327.73 580.187 1534.7 1283.83 2250.57 1227.11C2711.72 1191.13 2882.42 415.976 3046.07 183.636" stroke="white" stroke-opacity="0.1" stroke-width="0.9413" stroke-miterlimit="10"/>
<path d="M-578.072 822.983C-398.452 740.682 193.235 1306.48 468.654 1217.47C744.074 1128.48 677.173 419.481 991.134 489.168C1333.6 565.147 1542.27 1295.09 2260.9 1237.18C2723.31 1200.42 2887.51 397.7 3044.34 168.387" stroke="white" stroke-opacity="0.1" stroke-width="0.9465" stroke-miterlimit="10"/>
<path d="M-578.161 814.264C-395.217 730.466 202.818 1302.19 478.896 1220.73C754.974 1139.27 681.785 412.381 996.045 478.203C1339.47 550.107 1549.82 1306.33 2271.2 1247.25C2734.84 1209.74 2892.54 379.425 3042.54 153.167" stroke="white" stroke-opacity="0.1" stroke-width="0.9516" stroke-miterlimit="10"/>
<path d="M-578.221 805.546C-391.923 720.22 212.43 1297.94 489.168 1224C765.875 1150.06 686.426 405.28 1000.99 467.237C1345.37 535.067 1557.43 1317.59 2281.54 1257.31C2746.4 1219.05 2897.63 361.119 3040.77 137.947" stroke="white" stroke-opacity="0.1" stroke-width="0.9568" stroke-miterlimit="10"/>
<path d="M-578.311 796.828C-388.689 709.973 222.043 1293.68 499.409 1227.26C776.775 1160.87 691.038 398.15 1005.9 456.272C1351.21 520.027 1564.97 1328.86 2291.84 1267.41C2757.93 1228.4 2902.69 342.874 3039.01 122.758" stroke="white" stroke-opacity="0.1" stroke-width="0.9619" stroke-miterlimit="10"/>
<path d="M-578.401 788.079C-385.455 699.697 231.626 1289.37 509.651 1230.5C787.676 1171.63 695.62 390.989 1010.81 445.277C1357.08 504.927 1572.52 1340.06 2302.14 1277.45C2769.49 1237.69 2907.72 324.568 3037.21 107.478" stroke="white" stroke-opacity="0.1" stroke-width="0.967" stroke-miterlimit="10"/>
<path d="M-578.491 779.361C-382.221 689.451 241.209 1285.12 519.893 1233.76C798.577 1182.41 700.232 383.859 1015.75 434.341C1362.95 489.887 1580.09 1351.36 2312.47 1287.54C2781.05 1247.01 2912.81 306.322 3035.47 92.2881" stroke="white" stroke-opacity="0.1" stroke-width="0.9722" stroke-miterlimit="10"/>
<path d="M-578.581 770.642C-378.986 679.205 250.822 1280.83 530.135 1237.03C809.477 1193.23 704.813 376.728 1020.66 423.376C1368.82 474.787 1587.67 1362.62 2322.8 1297.61C2792.61 1256.32 2917.87 288.047 3033.71 77.0685" stroke="white" stroke-opacity="0.1" stroke-width="0.9773" stroke-miterlimit="10"/>
<path d="M-578.671 761.924C-375.752 668.958 260.405 1276.58 540.377 1240.3C820.348 1204.01 709.426 369.568 1025.57 412.411C1374.69 459.718 1595.25 1373.86 2333.1 1307.71C2804.14 1265.67 2922.93 269.801 3031.94 61.8488" stroke="white" stroke-opacity="0.1" stroke-width="0.9825" stroke-miterlimit="10"/>
<path d="M-578.76 753.206C-372.518 658.712 269.988 1272.32 550.618 1243.56C831.248 1214.8 714.067 361.868 1030.48 401.445C1380.62 443.989 1602.79 1385.12 2343.41 1317.77C2815.66 1274.99 2927.96 251.526 3030.14 46.6291" stroke="white" stroke-opacity="0.1" stroke-width="0.9876" stroke-miterlimit="10"/>
<path d="M-578.85 744.487C-369.283 648.495 279.571 1268.04 560.86 1246.83C842.149 1225.61 718.619 354.888 1035.39 390.51C1386.46 429.098 1610.37 1396.39 2353.74 1327.84C2827.25 1284.28 2933.06 233.25 3028.41 31.4094" stroke="white" stroke-opacity="0.1" stroke-width="0.9928" stroke-miterlimit="10"/>
<path d="M-578.94 735.739C-366.049 638.219 289.184 1263.75 571.102 1250.06C853.02 1236.37 723.171 347.877 1040.31 379.515C1392.24 414.178 1617.92 1407.62 2364.01 1337.9C2838.75 1293.59 2938.06 214.974 3026.58 16.1898" stroke="white" stroke-opacity="0.1" stroke-width="0.9979" stroke-miterlimit="10"/>
<path d="M-579 727.021C-362.785 627.973 298.797 1259.5 581.373 1253.33C863.95 1247.16 727.783 340.896 1045.28 368.549C1398.11 399.288 1625.52 1418.89 2374.37 1348C2850.34 1302.94 2943.18 196.699 3024.84 1" stroke="white" stroke-opacity="0.1" stroke-width="1.0031" stroke-miterlimit="10"/>
</svg>
