<svg width="1920" height="2099" viewBox="0 0 1920 2099" fill="none" xmlns="http://www.w3.org/2000/svg">
<path d="M-343.886 1208.27C90.915 1498.03 469.462 929.715 783.557 909.026C1236.22 879.224 1356.62 1414.65 1577.63 1174.14C1798.63 933.634 2006.6 723.805 2219.21 1106.82C2431.82 1489.84 2618.53 1285.9 2618.53 1285.9" stroke="white" stroke-opacity="0.1" stroke-width="0.6482" stroke-miterlimit="10"/>
<path d="M2618.11 1276.07C2614.28 1274.57 2420.83 1485.62 2207.95 1111.09C1995.06 736.564 1793.1 926.051 1571.47 1162.11C1349.21 1398.27 1228.43 892.301 772.643 920.943C457.086 940.877 84.1127 1477.86 -342.862 1191.08" stroke="white" stroke-opacity="0.1" stroke-width="0.6553" stroke-miterlimit="10"/>
<path d="M2617.65 1266.3C2609.99 1263.29 2409.77 1481.44 2196.63 1115.41C1983.5 749.38 1787.55 918.525 1565.26 1150.13C1341.75 1381.93 1220.62 905.407 761.683 932.907C444.701 952.068 77.2905 1457.65 -341.81 1173.91" stroke="white" stroke-opacity="0.1" stroke-width="0.6623" stroke-miterlimit="10"/>
<path d="M2617.23 1256.5C2605.73 1252 2398.77 1477.25 2185.36 1119.71C1971.94 762.167 1782.01 910.97 1559.05 1138.15C1334.26 1365.59 1212.82 918.541 750.723 944.872C432.325 963.231 70.4883 1437.48 -340.777 1156.7" stroke="white" stroke-opacity="0.1" stroke-width="0.6694" stroke-miterlimit="10"/>
<path d="M2616.78 1246.69C2601.48 1240.7 2387.72 1473.03 2174.06 1123.99C1960.39 774.955 1776.97 903.941 1552.85 1126.14C1327.31 1349.73 1205.05 931.627 739.763 956.837C419.941 974.422 63.6574 1417.3 -339.725 1139.52" stroke="white" stroke-opacity="0.1" stroke-width="0.6764" stroke-miterlimit="10"/>
<path d="M2616.32 1236.91C2597.19 1229.39 2376.69 1468.86 2162.74 1128.31C1948.84 787.743 1771.52 896.507 1546.64 1114.16C1319.97 1333.52 1197.24 944.761 728.811 968.773C407.565 985.584 56.8638 1397.1 -338.672 1122.35" stroke="white" stroke-opacity="0.1" stroke-width="0.6835" stroke-miterlimit="10"/>
<path d="M2615.9 1227.12C2592.94 1218.09 2365.66 1464.66 2151.47 1132.61C1937.29 800.53 1766.09 889.081 1540.44 1102.15C1312.61 1317.28 1189.45 957.838 717.86 980.71C395.181 996.775 50.0329 1376.92 -337.64 1105.13" stroke="white" stroke-opacity="0.1" stroke-width="0.6905" stroke-miterlimit="10"/>
<path d="M2615.44 1217.31C2588.65 1206.79 2354.64 1460.46 2140.18 1136.87C1925.71 813.281 1760.64 881.648 1534.25 1090.14C1305.25 1301.04 1181.65 970.944 706.908 992.646C382.796 1007.97 43.2394 1356.72 -336.588 1087.96" stroke="white" stroke-opacity="0.1" stroke-width="0.6976" stroke-miterlimit="10"/>
<path d="M2614.99 1207.51C2584.37 1195.48 2343.58 1456.25 2128.87 1141.16C1914.15 826.097 1755.16 874.205 1528.04 1078.16C1297.88 1284.83 1173.85 984.05 695.948 1004.61C370.392 1019.12 36.4085 1336.54 -335.564 1070.77" stroke="white" stroke-opacity="0.1" stroke-width="0.7046" stroke-miterlimit="10"/>
<path d="M2614.56 1197.74C2580.1 1184.21 2332.58 1452.08 2117.59 1145.48C1902.6 838.885 1749.7 866.799 1521.84 1066.15C1290.51 1268.59 1166.06 997.127 684.996 1016.55C358.007 1030.31 29.6149 1316.34 -334.503 1053.57" stroke="white" stroke-opacity="0.1" stroke-width="0.7117" stroke-miterlimit="10"/>
<path d="M2614.11 1187.93C2575.82 1172.91 2321.52 1447.87 2106.29 1149.77C1891.05 851.672 1744.22 859.357 1515.64 1054.14C1283.12 1252.34 1158.25 1010.23 674.065 1028.52C345.66 1041.48 22.8126 1296.17 -333.45 1036.39" stroke="white" stroke-opacity="0.1" stroke-width="0.7187" stroke-miterlimit="10"/>
<path d="M2613.66 1178.13C2571.56 1161.61 2310.5 1443.67 2094.98 1154.06C1879.5 864.46 1738.74 851.914 1509.43 1042.16C1275.73 1236.09 1150.48 1023.35 663.113 1040.46C333.247 1052.66 15.9818 1275.99 -332.426 1019.21" stroke="white" stroke-opacity="0.1" stroke-width="0.7257" stroke-miterlimit="10"/>
<path d="M2613.24 1168.33C2567.31 1150.31 2299.47 1439.47 2083.71 1158.36C1867.94 877.247 1733.23 844.462 1503.23 1030.15C1268.31 1219.84 1142.65 1036.44 652.133 1052.38C320.871 1063.83 9.18823 1255.79 -331.365 1002" stroke="white" stroke-opacity="0.1" stroke-width="0.7328" stroke-miterlimit="10"/>
<path d="M2612.78 1158.55C2563.03 1139.01 2288.44 1435.29 2072.4 1162.67C1856.35 890.055 1727.72 837.011 1497.03 1018.17C1260.91 1203.61 1134.85 1049.55 641.173 1064.35C308.486 1075.02 2.35727 1235.61 -330.342 984.82" stroke="white" stroke-opacity="0.1" stroke-width="0.7398" stroke-miterlimit="10"/>
<path d="M2612.35 1148.75C2558.77 1127.71 2277.41 1431.09 2061.12 1166.97C1844.81 902.814 1722.21 829.56 1490.86 1006.17C1253.53 1187.34 1127.11 1062.67 630.25 1076.29C296.11 1086.18 -4.4362 1215.41 -329.289 967.644" stroke="white" stroke-opacity="0.1" stroke-width="0.7469" stroke-miterlimit="10"/>
<path d="M2611.9 1138.95C2554.49 1116.4 2266.38 1426.92 2049.82 1171.26C1833.26 915.602 1716.71 822.08 1484.66 994.164C1246.08 1171.07 1119.28 1075.77 619.29 1088.26C283.726 1097.37 -11.2671 1195.23 -328.228 950.44" stroke="white" stroke-opacity="0.1" stroke-width="0.7539" stroke-miterlimit="10"/>
<path d="M2611.44 1129.17C2550.19 1105.12 2255.32 1422.73 2038.52 1175.55C1821.71 928.361 1711.17 814.62 1478.45 982.183C1238.66 1154.81 1111.51 1088.88 608.367 1100.2C271.35 1108.53 -18.032 1175.04 -327.175 933.264" stroke="white" stroke-opacity="0.1" stroke-width="0.761" stroke-miterlimit="10"/>
<path d="M2611.02 1119.37C2545.94 1093.83 2244.29 1418.53 2027.24 1179.84C1810.15 941.177 1705.67 807.14 1472.25 970.174C1231.21 1138.55 1103.71 1101.96 597.415 1112.14C258.937 1119.72 -24.8916 1154.85 -326.152 916.08" stroke="white" stroke-opacity="0.1" stroke-width="0.768" stroke-miterlimit="10"/>
<path d="M2610.57 1109.57C2541.65 1082.52 2233.27 1414.33 2015.94 1184.13C1798.6 953.965 1700.1 799.671 1466.05 958.165C1223.77 1122.25 1095.91 1115.07 586.464 1124.08C246.589 1130.89 -31.6851 1134.65 -325.091 898.876" stroke="white" stroke-opacity="0.1" stroke-width="0.7751" stroke-miterlimit="10"/>
<path d="M2610.12 1099.76C2537.4 1071.22 2222.21 1410.12 2004.63 1188.42C1787.03 966.715 1694.54 792.174 1459.85 946.156C1216.31 1105.95 1088.12 1128.14 575.512 1136.01C234.185 1142.04 -38.4787 1114.46 -324.058 881.663" stroke="white" stroke-opacity="0.1" stroke-width="0.7821" stroke-miterlimit="10"/>
<path d="M2609.68 1089.99C2533.13 1059.95 2211.21 1405.95 1993.35 1192.75C1775.47 979.531 1688.99 784.676 1453.64 934.175C1208.83 1089.67 1080.31 1141.28 564.544 1148.01C221.792 1153.26 -45.3183 1094.3 -323.014 864.516" stroke="white" stroke-opacity="0.1" stroke-width="0.7892" stroke-miterlimit="10"/>
<path d="M2609.23 1080.19C2528.86 1048.62 2200.15 1401.74 1982.05 1197.04C1763.91 992.319 1683.43 777.179 1447.44 922.195C1201.36 1073.37 1072.51 1154.38 553.592 1159.94C209.416 1164.42 -52.1406 1074.1 -321.991 847.331" stroke="white" stroke-opacity="0.1" stroke-width="0.7962" stroke-miterlimit="10"/>
<path d="M2608.78 1070.38C2524.6 1037.35 2189.13 1397.54 1970.74 1201.32C1752.36 1005.11 1677.87 769.682 1441.24 910.185C1193.89 1057.06 1064.72 1167.46 542.64 1171.88C197.04 1175.58 -58.9428 1053.92 -320.929 830.127" stroke="white" stroke-opacity="0.1" stroke-width="0.8033" stroke-miterlimit="10"/>
<path d="M2608.35 1060.61C2520.31 1026.04 2178.09 1393.37 1959.43 1205.64C1740.78 1017.89 1672.29 762.147 1435.04 898.176C1186.4 1040.72 1056.92 1180.57 531.689 1183.81C184.635 1186.74 -65.765 1033.72 -319.897 812.914" stroke="white" stroke-opacity="0.1" stroke-width="0.8103" stroke-miterlimit="10"/>
<path d="M2607.9 1050.81C2516.03 1014.74 2167.07 1389.17 1948.13 1209.93C1729.23 1030.67 1666.7 754.641 1428.83 886.196C1178.91 1024.41 1049.14 1193.68 520.729 1195.78C172.242 1197.96 -72.5672 1013.55 -318.845 795.739" stroke="white" stroke-opacity="0.1" stroke-width="0.8173" stroke-miterlimit="10"/>
<path d="M2607.48 1041.01C2511.77 1003.44 2156.04 1384.96 1936.86 1214.2C1717.68 1043.46 1661.13 747.106 1422.63 874.187C1171.42 1008.07 1041.34 1206.79 509.777 1207.72C159.866 1209.12 -79.3695 993.375 -317.792 778.563" stroke="white" stroke-opacity="0.1" stroke-width="0.8244" stroke-miterlimit="10"/>
<path d="M2607.03 1031.2C2507.49 992.133 2145.02 1380.76 1925.55 1218.51C1706.12 1056.25 1655.53 739.534 1416.42 862.206C1163.92 991.757 1033.54 1219.89 498.817 1219.68C147.482 1220.31 -86.2003 973.195 -316.768 761.379" stroke="white" stroke-opacity="0.1" stroke-width="0.8314" stroke-miterlimit="10"/>
<path d="M2606.57 1021.43C2503.22 980.864 2133.96 1376.58 1914.25 1222.8C1694.57 1069.04 1649.92 731.991 1410.23 850.197C1156.41 975.379 1025.74 1233 487.866 1231.62C135.077 1231.46 -93.0226 952.986 -315.736 744.166" stroke="white" stroke-opacity="0.1" stroke-width="0.8385" stroke-miterlimit="10"/>
<path d="M2606.14 1011.63C2498.98 969.538 2122.93 1372.38 1902.97 1227.1C1683.02 1081.82 1644.32 724.419 1404.05 838.197C1148.93 959.009 1017.98 1246.08 476.943 1243.56C122.721 1242.66 -99.8248 932.815 -314.655 726.999" stroke="white" stroke-opacity="0.1" stroke-width="0.8455" stroke-miterlimit="10"/>
<path d="M2605.69 1001.82C2494.68 958.26 2111.9 1368.17 1891.67 1231.39C1671.44 1094.6 1638.73 716.847 1397.85 826.216C1141.42 942.631 1010.17 1259.22 465.983 1255.53C110.345 1253.83 -106.618 912.616 -313.631 709.815" stroke="white" stroke-opacity="0.1" stroke-width="0.8526" stroke-miterlimit="10"/>
<path d="M2605.24 992.018C2490.41 946.925 2100.88 1363.97 1880.37 1235.68C1659.89 1107.39 1633.11 709.238 1391.62 814.198C1133.86 926.235 1002.35 1272.29 455.002 1267.45C97.961 1265.02 -113.449 892.436 -312.578 692.639" stroke="white" stroke-opacity="0.1" stroke-width="0.8596" stroke-miterlimit="10"/>
<path d="M2604.81 982.25C2486.15 935.656 2089.85 1359.8 1869.09 1239.97C1648.33 1120.18 1627.52 701.637 1385.45 802.198C1126.36 909.828 994.574 1285.4 444.071 1279.43C85.5852 1276.18 -120.243 872.236 -311.546 675.426" stroke="white" stroke-opacity="0.1" stroke-width="0.8667" stroke-miterlimit="10"/>
<path d="M2604.36 972.444C2481.86 924.35 2078.79 1355.59 1857.78 1244.29C1636.78 1132.97 1621.89 694.056 1379.24 790.217C1118.83 893.412 986.773 1298.51 433.119 1291.36C73.172 1287.36 -127.074 852.057 -310.494 658.25" stroke="white" stroke-opacity="0.1" stroke-width="0.8737" stroke-miterlimit="10"/>
<path d="M2603.91 962.638C2477.61 913.052 2067.77 1351.39 1846.48 1248.58C1625.23 1145.75 1616.28 686.418 1373.04 778.208C1111.3 876.996 978.972 1311.61 422.159 1303.33C60.7874 1298.55 -133.867 831.857 -309.441 641.075" stroke="white" stroke-opacity="0.1" stroke-width="0.8808" stroke-miterlimit="10"/>
<path d="M2603.47 952.869C2473.34 901.783 2056.73 1347.21 1835.2 1252.88C1613.65 1158.53 1610.67 678.78 1366.83 766.228C1103.78 860.552 971.171 1324.72 411.208 1315.27C48.4115 1309.72 -140.698 811.677 -308.409 623.862" stroke="white" stroke-opacity="0.1" stroke-width="0.8878" stroke-miterlimit="10"/>
<path d="M2603.02 943.063C2469.06 890.477 2045.71 1343.01 1823.9 1257.16C1602.09 1171.32 1605.03 671.134 1360.64 754.218C1096.24 844.07 963.407 1337.8 400.285 1327.21C36.027 1320.91 -147.5 791.506 -307.356 606.686" stroke="white" stroke-opacity="0.1" stroke-width="0.8949" stroke-miterlimit="10"/>
<path d="M2602.57 933.257C2464.77 879.17 2034.65 1338.8 1812.6 1261.45C1590.54 1184.11 1599.42 663.496 1354.44 742.209C1088.73 827.597 955.606 1350.91 389.333 1339.15C23.6512 1332.07 -154.323 771.298 -306.332 589.502" stroke="white" stroke-opacity="0.1" stroke-width="0.9019" stroke-miterlimit="10"/>
<path d="M2602.15 923.46C2460.52 867.873 2023.66 1334.61 1801.32 1265.75C1578.99 1196.9 1593.8 655.791 1348.24 730.2C1081.19 811.115 947.814 1363.99 378.382 1351.08C11.2666 1343.26 -161.125 751.127 -305.271 572.298" stroke="white" stroke-opacity="0.1" stroke-width="0.9089" stroke-miterlimit="10"/>
<path d="M2601.69 913.683C2456.23 856.566 2012.59 1330.42 1790.01 1270.07C1567.43 1209.71 1588.19 648.154 1342.03 718.22C1073.65 794.633 940.004 1377.12 367.422 1363.05C-1.10922 1354.42 -167.918 730.927 -304.219 555.122" stroke="white" stroke-opacity="0.1" stroke-width="0.916" stroke-miterlimit="10"/>
<path d="M2601.27 903.886C2451.98 845.269 2001.57 1326.22 1778.71 1274.36C1555.85 1222.49 1582.57 640.449 1335.82 706.239C1066.11 778.151 932.203 1390.23 356.461 1375.01C-13.4938 1365.61 -174.749 710.748 -303.195 537.938" stroke="white" stroke-opacity="0.1" stroke-width="0.923" stroke-miterlimit="10"/>
<path d="M2600.82 894.08C2447.72 833.971 1990.54 1322.02 1767.43 1278.65C1544.32 1235.29 1576.98 632.754 1329.65 694.238C1058.62 761.621 924.431 1403.34 345.539 1386.96C-25.8983 1376.77 -181.551 690.577 -302.134 520.733" stroke="white" stroke-opacity="0.1" stroke-width="0.9301" stroke-miterlimit="10"/>
<path d="M2600.36 884.274C2443.44 822.665 1979.52 1317.82 1756.13 1282.94C1532.74 1248.07 1571.37 625.021 1323.42 682.221C1051.08 745.044 916.61 1416.41 334.558 1398.88C-38.2829 1387.96 -188.374 670.368 -301.11 503.549" stroke="white" stroke-opacity="0.1" stroke-width="0.9371" stroke-miterlimit="10"/>
<path d="M2599.93 874.505C2439.18 811.396 1968.49 1313.64 1744.85 1287.27C1521.19 1260.85 1565.76 617.289 1317.22 670.24C1043.54 728.534 908.809 1429.51 323.598 1410.85C-50.6588 1399.12 -195.176 650.197 -300.058 486.374" stroke="white" stroke-opacity="0.1" stroke-width="0.9442" stroke-miterlimit="10"/>
<path d="M2599.48 864.7C2434.89 800.089 1957.46 1309.44 1733.55 1291.53C1509.64 1273.64 1560.14 609.556 1311.05 658.24C1036.06 711.975 901.037 1442.63 312.675 1422.79C-63.0432 1410.31 -201.998 629.989 -298.997 469.169" stroke="white" stroke-opacity="0.1" stroke-width="0.9512" stroke-miterlimit="10"/>
<path d="M2599.03 854.894C2430.64 788.792 1946.43 1305.24 1722.24 1295.84C1498.09 1286.43 1554.47 601.398 1304.84 646.259C1028.47 694.945 893.236 1455.73 301.715 1434.76C-75.4278 1421.5 -208.8 609.818 -297.973 451.985" stroke="white" stroke-opacity="0.1" stroke-width="0.9583" stroke-miterlimit="10"/>
<path d="M2598.6 845.125C2426.35 777.486 1935.4 1301.07 1710.97 1300.14C1486.53 1299.22 1548.93 593.844 1298.64 634.25C1021.02 678.555 885.463 1468.85 290.764 1446.7C-87.8036 1432.66 -215.631 589.638 -296.92 434.809" stroke="white" stroke-opacity="0.1" stroke-width="0.9653" stroke-miterlimit="10"/>
<path d="M2598.15 835.319C2422.07 766.179 1924.35 1296.85 1699.66 1304.43C1474.98 1312 1543.39 586.289 1292.44 622.241C1013.57 662.194 877.671 1481.93 279.812 1458.63C-100.188 1443.85 -222.425 569.439 -295.888 417.596" stroke="white" stroke-opacity="0.1" stroke-width="0.9724" stroke-miterlimit="10"/>
</svg>
