<svg width="132" height="67" viewBox="0 0 132 67" fill="none" xmlns="http://www.w3.org/2000/svg">
<path d="M9.6386 53.2095L2.08182 53.2349L11.7995 24.1112L21.1602 24.0798L31.0731 53.1376L23.5164 53.163L16.611 31.4247L16.3837 31.4254L9.6386 53.2095ZM8.59165 41.7641L24.387 41.7111L24.4049 47.052L8.60958 47.105L8.59165 41.7641ZM38.4374 61.7493C36.3636 61.7563 34.5871 61.4734 33.1079 60.9007C31.6287 60.328 30.466 59.5412 29.6198 58.5402C28.7736 57.5393 28.2632 56.4046 28.0885 55.1363L34.6639 54.7449C34.7885 55.1895 35.0171 55.577 35.3496 55.9074C35.6917 56.2376 36.1329 56.4918 36.6732 56.67C37.2231 56.848 37.8673 56.9358 38.6059 56.9334C39.7707 56.9295 40.7309 56.6421 41.4866 56.0714C42.2518 55.5101 42.632 54.5287 42.6273 53.1272L42.6144 49.292L42.3729 49.2928C42.1006 49.9661 41.6859 50.5688 41.129 51.101C40.5721 51.6332 39.8774 52.0522 39.0451 52.358C38.2223 52.6638 37.2758 52.8185 36.2058 52.8221C34.6149 52.8274 33.1553 52.463 31.8271 51.7288C30.5083 50.9851 29.4485 49.8334 28.6478 48.2736C27.8566 46.7042 27.4568 44.6838 27.4485 42.2122C27.44 39.6649 27.8401 37.566 28.649 35.9155C29.4578 34.2556 30.519 33.0257 31.8326 32.2258C33.1557 31.4259 34.5796 31.0234 36.1042 31.0183C37.25 31.0145 38.2308 31.21 39.0465 31.605C39.8717 31.9905 40.5504 32.4901 41.0828 33.1039C41.6152 33.7176 42.0198 34.3555 42.2966 35.0174L42.4955 35.0168L42.4829 31.281L49.4005 31.2578L49.474 53.1611C49.4802 55.0076 49.0214 56.567 48.0977 57.839C47.1739 59.1111 45.8798 60.0766 44.2153 60.7356C42.5509 61.404 40.6249 61.742 38.4374 61.7493ZM38.6036 47.7572C39.4464 47.7544 40.1653 47.5294 40.7604 47.0823C41.3555 46.6352 41.8126 45.9945 42.1318 45.1601C42.451 44.3257 42.6086 43.3261 42.6047 42.1613C42.6007 40.9776 42.4363 39.9602 42.1115 39.109C41.7961 38.2483 41.3346 37.587 40.727 37.125C40.1288 36.663 39.4084 36.4334 38.5656 36.4362C37.7038 36.4391 36.9754 36.6783 36.3805 37.1538C35.7855 37.6293 35.3332 38.2984 35.0235 39.1612C34.7234 40.0145 34.5752 41.0235 34.5792 42.1883C34.5831 43.353 34.7427 44.3516 35.058 45.1838C35.3733 46.0161 35.8252 46.6538 36.4138 47.0969C37.0119 47.54 37.7418 47.7601 38.6036 47.7572ZM59.5022 53.4541C57.22 53.4618 55.2488 53.0186 53.5886 52.1245C51.9378 51.221 50.6646 49.9326 49.7688 48.2595C48.8825 46.5768 48.4354 44.5755 48.4276 42.2554C48.42 40.0017 48.8585 38.0305 49.743 36.3419C50.6275 34.6438 51.8778 33.3233 53.4939 32.3804C55.1101 31.428 57.0166 30.9481 59.2136 30.9408C60.7666 30.9355 62.1878 31.1722 63.4773 31.6509C64.7668 32.1295 65.8819 32.8407 66.8226 33.7845C67.7633 34.7284 68.4963 35.8954 69.0218 37.2857C69.5473 38.6665 69.8131 40.2518 69.8191 42.0416L69.8249 43.7745L50.8619 43.8382L50.8484 39.8041L63.3483 39.7622C63.3364 39.0236 63.159 38.366 62.8161 37.7895C62.4733 37.213 62.003 36.7648 61.4053 36.4448C60.8171 36.1153 60.1395 35.9519 59.3724 35.9545C58.5959 35.9571 57.9005 36.1346 57.2861 36.487C56.6718 36.83 56.1856 37.3004 55.8278 37.8982C55.4699 38.4865 55.2828 39.1547 55.2663 39.9029L55.2801 44.008C55.2831 44.8982 55.4609 45.6788 55.8136 46.35C56.1662 47.0117 56.665 47.5261 57.3102 47.8933C57.9554 48.2604 58.7231 48.4425 59.6132 48.4395C60.2287 48.4374 60.7872 48.3503 61.2885 48.1782C61.7898 48.0061 62.2198 47.7537 62.5786 47.421C62.9373 47.0884 63.2058 46.6803 63.3841 46.1967L69.7625 46.36C69.5022 47.7908 68.924 49.038 68.0279 50.1016C67.1413 51.1557 65.9746 51.9788 64.5277 52.5708C63.0808 53.1533 61.4056 53.4477 59.5022 53.4541ZM75.7077 40.5445L75.7494 52.9876L68.8035 53.011L68.7302 31.1929L75.3353 31.1707L75.3487 35.1764L75.5902 35.1756C76.0687 33.8387 76.889 32.7896 78.0513 32.0281C79.2135 31.2571 80.5995 30.869 82.2093 30.8636C83.7434 30.8584 85.075 31.1996 86.2042 31.8871C87.3429 32.5651 88.2268 33.5186 88.8559 34.7475C89.4945 35.967 89.8118 37.3959 89.8078 39.0341L89.8545 52.9403L82.9085 52.9636L82.8664 40.4211C82.8718 39.2089 82.5609 38.263 81.9336 37.5833C81.3158 36.9035 80.4576 36.5655 79.3591 36.5692C78.63 36.5716 77.9866 36.7348 77.4289 37.0586C76.8807 37.373 76.4561 37.8242 76.1551 38.4123C75.8635 39.0004 75.7143 39.7112 75.7077 40.5445ZM99.7409 53.3191C97.4398 53.3268 95.4638 52.8599 93.8129 51.9185C92.1714 50.977 90.9075 49.665 90.0212 47.9823C89.1348 46.2902 88.6879 44.3315 88.6805 42.1061C88.673 39.8713 89.1067 37.9096 89.9817 36.221C90.8662 34.523 92.126 33.1977 93.761 32.2453C95.4056 31.2928 97.3689 30.8127 99.6511 30.805C101.668 30.7983 103.426 31.1569 104.925 31.8811C106.433 32.6052 107.61 33.6334 108.458 34.9658C109.314 36.2887 109.769 37.845 109.823 39.6346L103.331 39.6564C103.195 38.5394 102.813 37.6647 102.186 37.0323C101.569 36.3999 100.763 36.0854 99.7683 36.0888C98.9634 36.0915 98.2586 36.3211 97.6541 36.7777C97.0495 37.2248 96.5783 37.8892 96.2403 38.7711C95.9118 39.6434 95.7497 40.7235 95.754 42.0114C95.7584 43.2992 95.9277 44.3877 96.2622 45.2767C96.606 46.1562 97.0818 46.8223 97.6893 47.2748C98.2969 47.7178 99.0031 47.938 99.808 47.9353C100.452 47.9331 101.02 47.7939 101.511 47.5176C102.012 47.2413 102.423 46.8375 102.743 46.3061C103.063 45.7653 103.264 45.1112 103.347 44.3438L109.839 44.322C109.778 46.1215 109.334 47.695 108.505 49.0425C107.686 50.3899 106.529 51.4402 105.035 52.1933C103.551 52.9369 101.786 53.3122 99.7409 53.3191ZM113.097 61.0442C112.263 61.047 111.477 60.9833 110.738 60.8532C109.999 60.7326 109.364 60.569 108.833 60.3624L110.35 55.3147C111.033 55.5397 111.649 55.6702 112.198 55.7062C112.757 55.7422 113.235 55.6507 113.632 55.4315C114.038 55.2218 114.349 54.8467 114.565 54.3062L114.833 53.6519L107.002 31.0644L114.274 31.04L118.346 46.5946L118.574 46.5939L122.598 31.0121L129.913 30.9875L121.769 54.9213C121.376 56.1158 120.816 57.1688 120.09 58.0803C119.373 59.0013 118.443 59.7241 117.298 60.2488C116.164 60.7734 114.763 61.0386 113.097 61.0442Z" fill="white"/>
<path d="M12.0167 11.2468L9.37253 11.2556C9.32308 10.9137 9.22346 10.6102 9.07366 10.3451C8.92384 10.0759 8.73191 9.84716 8.49784 9.65879C8.26378 9.47041 7.99365 9.32643 7.68744 9.22684C7.38526 9.12724 7.05708 9.07804 6.70292 9.07923C6.06301 9.08137 5.50614 9.24222 5.0323 9.56175C4.55845 9.87726 4.19174 10.3373 3.93217 10.9419C3.67258 11.5424 3.54423 12.2713 3.5471 13.1285C3.55006 14.0099 3.68335 14.75 3.94696 15.3488C4.2146 15.9476 4.58638 16.3991 5.06231 16.7034C5.53824 17.0077 6.08811 17.1587 6.71192 17.1567C7.06206 17.1555 7.38589 17.1081 7.68339 17.0145C7.98493 16.921 8.25211 16.7852 8.48494 16.6074C8.71776 16.4255 8.91021 16.2055 9.06228 15.9474C9.21837 15.6893 9.32605 15.3951 9.38531 15.0649L12.0295 15.0681C11.963 15.6358 11.7938 16.1837 11.5219 16.7119C11.254 17.236 10.8913 17.7061 10.4339 18.1222C9.98053 18.5342 9.4383 18.862 8.80725 19.1056C8.18021 19.3452 7.47027 19.4663 6.67742 19.4689C5.57468 19.4726 4.58782 19.2264 3.71683 18.7303C2.84987 18.2341 2.16326 17.514 1.65701 16.5699C1.15479 15.6258 0.901418 14.4817 0.896906 13.1374C0.892381 11.7892 1.14208 10.6413 1.64601 9.69386C2.14993 8.74637 2.83572 8.02366 3.70337 7.52572C4.57101 7.02375 5.54815 6.77094 6.63479 6.7673C7.35117 6.76489 8.01557 6.86328 8.62798 7.06245C9.24442 7.26162 9.79074 7.55358 10.2669 7.93835C10.7431 8.31909 11.1311 8.78666 11.4307 9.34106C11.7345 9.89544 11.9298 10.5307 12.0167 11.2468ZM23.33 19.4251C22.3923 19.4283 21.5806 19.2318 20.8951 18.8356C20.2136 18.4354 19.6865 17.8778 19.3139 17.1627C18.9412 16.4435 18.7532 15.609 18.7501 14.6592C18.7468 13.7014 18.9292 12.8636 19.297 12.146C19.6649 11.4243 20.1882 10.8632 20.867 10.4624C21.5499 10.0577 22.3601 9.85374 23.2979 9.85059C24.2356 9.84744 25.0452 10.046 25.7267 10.4461C26.4122 10.8423 26.9413 11.3999 27.314 12.1191C27.6867 12.8342 27.8746 13.6707 27.8779 14.6286C27.881 15.5784 27.6987 16.4141 27.3309 17.1357C26.963 17.8534 26.4377 18.4146 25.7548 18.8193C25.076 19.22 24.2677 19.422 23.33 19.4251ZM23.3354 17.4329C23.762 17.4315 24.1178 17.3095 24.4027 17.0671C24.6876 16.8206 24.9018 16.4859 25.0453 16.0628C25.1928 15.6397 25.2656 15.1585 25.2638 14.6192C25.262 14.0799 25.1859 13.5992 25.0356 13.1772C24.8893 12.7551 24.6729 12.4217 24.3863 12.1772C24.0997 11.9327 23.7431 11.8111 23.3165 11.8125C22.8859 11.814 22.5241 11.938 22.2311 12.1844C21.9422 12.4309 21.724 12.7657 21.5765 13.1888C21.433 13.6118 21.3622 14.093 21.364 14.6323C21.3658 15.1716 21.4398 15.6523 21.5861 16.0744C21.7365 16.4965 21.9569 16.8298 22.2475 17.0743C22.5421 17.3148 22.9048 17.4343 23.3354 17.4329ZM34.8355 19.2054L34.8044 9.93271L37.2553 9.92448L37.2608 11.5605L37.3695 11.5601C37.5609 11.0161 37.8814 10.5864 38.3311 10.271C38.7808 9.95558 39.3196 9.79681 39.9474 9.79471C40.5833 9.79257 41.1251 9.94973 41.5729 10.2662C42.0207 10.5786 42.32 11.0042 42.4707 11.543L42.5673 11.5427C42.7546 11.0108 43.0953 10.585 43.5893 10.2654C44.0872 9.9418 44.6763 9.77884 45.3565 9.77655C46.2217 9.77365 46.925 10.047 47.4661 10.5965C48.0113 11.1421 48.2855 11.9179 48.2889 12.924L48.3098 19.1602L45.7442 19.1688L45.7249 13.4398C45.7232 12.9246 45.5851 12.5387 45.3105 12.282C45.036 12.0254 44.6935 11.8978 44.283 11.8991C43.8161 11.9007 43.4524 12.0508 43.1918 12.3495C42.9312 12.6442 42.8017 13.033 42.8033 13.516L42.8223 19.1786L40.3291 19.1869L40.3096 13.4036C40.3081 12.9488 40.1761 12.587 39.9136 12.3183C39.6551 12.0495 39.3146 11.9158 38.892 11.9172C38.6063 11.9182 38.3489 11.9915 38.12 12.1371C37.8951 12.2788 37.7167 12.4786 37.5847 12.7366C37.4528 12.9906 37.3874 13.2886 37.3885 13.6307L37.4072 19.1968L34.8355 19.2054ZM55.6229 22.6129L55.5801 9.86298L58.1156 9.85447L58.1208 11.412L58.2355 11.4116C58.3474 11.1617 58.5095 10.9076 58.722 10.6493C58.9384 10.387 59.2194 10.1687 59.5649 9.99449C59.9145 9.81623 60.3488 9.72623 60.868 9.72449C61.5442 9.72222 62.1686 9.89721 62.7412 10.2495C63.3139 10.5977 63.7725 11.1254 64.1169 11.8326C64.4614 12.5357 64.6354 13.4185 64.639 14.481C64.6424 15.5154 64.4784 16.3893 64.1467 17.1027C63.8191 17.8122 63.3701 18.351 62.7999 18.7191C62.2336 19.0832 61.5983 19.2665 60.894 19.2688C60.395 19.2705 59.9701 19.1894 59.6194 19.0256C59.2727 18.8618 58.9883 18.6554 58.7661 18.4067C58.5439 18.1539 58.374 17.8989 58.2564 17.6417L58.178 17.6419L58.1946 22.6043L55.6229 22.6129ZM58.113 14.4909C58.1149 15.0422 58.193 15.5229 58.3473 15.9329C58.5016 16.3429 58.724 16.6621 59.0146 16.8906C59.3051 17.115 59.6576 17.2265 60.0722 17.2251C60.4907 17.2237 60.8445 17.1078 61.1335 16.8774C61.4225 16.643 61.6408 16.3203 61.7883 15.9093C61.9398 15.4942 62.0147 15.0171 62.0129 14.4778C62.0111 13.9425 61.9351 13.4719 61.7848 13.0659C61.6345 12.6599 61.4141 12.3427 61.1236 12.1143C60.833 11.8858 60.4765 11.7723 60.0539 11.7738C59.6353 11.7752 59.2815 11.887 58.9925 12.1093C58.7075 12.3317 58.4892 12.6463 58.3376 13.0533C58.1861 13.4603 58.1112 13.9395 58.113 14.4909ZM74.1692 6.70966L74.2107 19.0732L71.6389 19.0819L71.5974 6.71829L74.1692 6.70966ZM85.7672 19.2155C84.8133 19.2187 83.9917 19.0283 83.3022 18.6443C82.6167 18.2562 82.0876 17.7066 81.7149 16.9955C81.3423 16.2803 81.1543 15.4338 81.151 14.4558C81.1478 13.502 81.3301 12.6642 81.698 11.9426C82.0658 11.2209 82.5851 10.6578 83.2559 10.253C83.9307 9.84831 84.7228 9.64442 85.6324 9.64137C86.2441 9.63932 86.8139 9.73601 87.3418 9.93144C87.8737 10.1228 88.3375 10.4131 88.7333 10.8021C89.133 11.1912 89.4445 11.6811 89.6679 12.272C89.8912 12.8589 90.0042 13.5467 90.0068 14.3355L90.0092 15.0418L82.1794 15.0681L82.174 13.4744L87.5831 13.4562C87.5818 13.086 87.5002 12.7582 87.3383 12.473C87.1763 12.1878 86.9522 11.9652 86.6659 11.8052C86.3837 11.6411 86.0554 11.5597 85.6811 11.561C85.2907 11.5623 84.9449 11.654 84.6437 11.8361C84.3464 12.0142 84.1138 12.2544 83.9458 12.5568C83.7778 12.8552 83.6923 13.1876 83.6896 13.5538L83.6946 15.0691C83.6962 15.5279 83.782 15.924 83.9522 16.2575C84.1264 16.5909 84.3707 16.8477 84.6852 17.0278C84.9998 17.2078 85.3723 17.2971 85.803 17.2957C86.0887 17.2947 86.3502 17.2536 86.5874 17.1723C86.8245 17.091 87.0274 16.9696 87.1959 16.808C87.3644 16.6465 87.4925 16.4488 87.5803 16.2151L89.9593 16.3641C89.8405 16.936 89.5947 17.4359 89.2218 17.8637C88.853 18.2876 88.3751 18.6192 87.7883 18.8586C87.2056 19.094 86.5318 19.213 85.7672 19.2155ZM98.9228 9.7175L100.636 12.9536L102.37 9.70593L105.008 9.69708L102.337 14.3424L105.112 18.9695L102.486 18.9783L100.646 15.7789L98.8573 18.9905L96.2011 18.9994L98.9384 14.3538L96.2666 9.72642L98.9228 9.7175Z" fill="white"/>
</svg>
