<svg width="49" height="49" viewBox="0 0 49 49" fill="none" xmlns="http://www.w3.org/2000/svg">
<path d="M1.53125 10.3359V38.6641H15.2168C16.4849 38.6641 25.2178 38.4069 25.2178 30.4336C25.2178 25.451 21.7904 23.7583 20.0498 23.2559C21.3298 22.6517 23.8779 21.2162 23.8779 17.3701C23.8779 15.2288 23.5729 10.3359 14.834 10.3359H1.53125ZM32.7305 12.9678V15.5518H43.3057V12.9678H32.7305ZM7.75195 15.1689H13.5898C14.1401 15.1689 17.8486 14.8759 17.8486 18.4229C17.8486 21.4554 15.1689 21.7725 14.0684 21.7725H7.75195V15.1689ZM38.2812 17.8965C30.2841 17.8965 28.6152 24.8409 28.6152 27.8496C28.6152 36.7799 35.9365 37.8027 38.2812 37.8027C44.6036 37.8027 46.3981 33.7114 47.1338 31.4385H42.54C42.3606 32.0247 41.0208 33.9268 38.4727 33.9268C34.2019 33.9268 33.8311 30.5891 33.8311 29.0938H47.4209C47.696 23.9258 45.4351 17.8965 38.2812 17.8965ZM38.1377 21.7725C39.4117 21.7725 40.4406 22.1433 41.0566 22.8252C41.6727 23.5131 42.1273 24.5179 42.2529 25.8398H33.8311C33.855 25.475 33.9387 25.0563 34.0703 24.5957C34.2019 24.1232 34.4053 23.6746 34.7402 23.2559C35.0752 22.8431 35.5417 22.4843 36.0801 22.2031C36.6304 21.916 37.3123 21.7725 38.1377 21.7725ZM7.75195 26.0312H14.499C15.8389 26.0312 18.9971 26.2406 18.9971 30.0986C18.9971 33.837 15.0194 33.8311 14.4033 33.8311H7.75195V26.0312Z" fill="black"/>
</svg>
