<svg width="49" height="46" viewBox="0 0 49 46" fill="none" xmlns="http://www.w3.org/2000/svg">
<path d="M11.9551 13.1093C11.4806 12.8694 10.9067 12.8814 10.444 13.1409C9.98128 13.4003 9.69794 13.869 9.69794 14.375V32.5834C9.69794 33.3773 10.3835 34.0209 11.2292 34.0209C12.0749 34.0209 12.7604 33.3773 12.7604 32.5834V16.7817L23.774 22.349C24.2273 22.5782 24.7728 22.5782 25.226 22.349L36.2396 16.7817V32.5834C36.2396 33.3773 36.9252 34.0209 37.7709 34.0209C38.6165 34.0209 39.3021 33.3773 39.3021 32.5834V14.375C39.3021 13.869 39.0187 13.4003 38.5561 13.1409C38.0934 12.8814 37.5195 12.8694 37.0448 13.1093L24.5 19.4508L11.9551 13.1093Z" fill="black"/>
<path fill-rule="evenodd" clip-rule="evenodd" d="M35.3425 7.13333C28.1287 6.52782 20.8716 6.52782 13.6576 7.13333L10.5597 7.39337C7.23665 7.6723 4.55171 10.0555 4.06908 13.1546C3.05233 19.6835 3.05233 26.3163 4.06908 32.845C4.55171 35.9441 7.23665 38.3273 10.5597 38.6063L13.6576 38.8662C20.8716 39.4719 28.1287 39.4719 35.3425 38.8662L38.4403 38.6063C41.7635 38.3273 44.4483 35.9441 44.931 32.845C45.9477 26.3163 45.9477 19.6835 44.931 13.1546C44.4483 10.0555 41.7635 7.6723 38.4403 7.39337L35.3425 7.13333ZM13.9303 9.99691C20.9628 9.40663 28.0372 9.40663 35.0697 9.99691L38.1678 10.2569C40.079 10.4174 41.6231 11.7881 41.9007 13.5705C42.8746 19.8234 42.8746 26.1762 41.9007 32.4291C41.6231 34.2116 40.079 35.5822 38.1678 35.7427L35.0697 36.0027C28.0372 36.5931 20.9628 36.5931 13.9303 36.0027L10.8324 35.7427C8.92118 35.5822 7.37695 34.2116 7.09936 32.4291C6.12557 26.1762 6.12557 19.8234 7.09936 13.5705C7.37695 11.7881 8.92118 10.4174 10.8324 10.2569L13.9303 9.99691Z" fill="black"/>
</svg>
