<svg width="50" height="50" viewBox="0 0 50 50" fill="none" xmlns="http://www.w3.org/2000/svg">
<path fill-rule="evenodd" clip-rule="evenodd" d="M25 37.5C31.9035 37.5 37.5 31.9035 37.5 25C37.5 18.0964 31.9035 12.5 25 12.5C18.0964 12.5 12.5 18.0964 12.5 25C12.5 31.9035 18.0964 37.5 25 37.5ZM25 33.3333C29.6023 33.3333 33.3333 29.6023 33.3333 25C33.3333 20.3976 29.6023 16.6667 25 16.6667C20.3976 16.6667 16.6667 20.3976 16.6667 25C16.6667 29.6023 20.3976 33.3333 25 33.3333Z" fill="#0F0F0F"/>
<path d="M37.5 10.4165C36.3494 10.4165 35.4167 11.3493 35.4167 12.4998C35.4167 13.6504 36.3494 14.5832 37.5 14.5832C38.6506 14.5832 39.5834 13.6504 39.5834 12.4998C39.5834 11.3493 38.6506 10.4165 37.5 10.4165Z" fill="#0F0F0F"/>
<path fill-rule="evenodd" clip-rule="evenodd" d="M3.44573 8.90862C2.08331 11.5825 2.08331 15.0829 2.08331 22.0835V27.9168C2.08331 34.9175 2.08331 38.4179 3.44573 41.0916C4.64415 43.4437 6.5564 45.356 8.90844 46.5543C11.5823 47.9168 15.0827 47.9168 22.0833 47.9168H27.9166C34.9173 47.9168 38.4177 47.9168 41.0914 46.5543C43.4435 45.356 45.3558 43.4437 46.5541 41.0916C47.9166 38.4179 47.9166 34.9175 47.9166 27.9168V22.0835C47.9166 15.0829 47.9166 11.5825 46.5541 8.90862C45.3558 6.55658 43.4435 4.64433 41.0914 3.44591C38.4177 2.0835 34.9173 2.0835 27.9166 2.0835H22.0833C15.0827 2.0835 11.5823 2.0835 8.90844 3.44591C6.5564 4.64433 4.64415 6.55658 3.44573 8.90862ZM27.9166 6.25016H22.0833C18.5142 6.25016 16.088 6.25341 14.2126 6.40662C12.3859 6.55587 11.4517 6.82639 10.8001 7.15843C9.23204 7.95739 7.95721 9.23222 7.15825 10.8002C6.82621 11.4519 6.55569 12.3861 6.40644 14.2128C6.25323 16.0882 6.24998 18.5144 6.24998 22.0835V27.9168C6.24998 31.486 6.25323 33.912 6.40644 35.7875C6.55569 37.6143 6.82621 38.5485 7.15825 39.2002C7.95721 40.7681 9.23204 42.0429 10.8001 42.8418C11.4517 43.1739 12.3859 43.4445 14.2126 43.5937C16.088 43.7468 18.5142 43.7502 22.0833 43.7502H27.9166C31.4858 43.7502 33.9119 43.7468 35.7873 43.5937C37.6141 43.4445 38.5483 43.1739 39.2 42.8418C40.7679 42.0429 42.0427 40.7681 42.8416 39.2002C43.1737 38.5485 43.4444 37.6143 43.5935 35.7875C43.7466 33.912 43.75 31.486 43.75 27.9168V22.0835C43.75 18.5144 43.7466 16.0882 43.5935 14.2128C43.4444 12.3861 43.1737 11.4519 42.8416 10.8002C42.0427 9.23222 40.7679 7.95739 39.2 7.15843C38.5483 6.82639 37.6141 6.55587 35.7873 6.40662C33.9119 6.25341 31.4858 6.25016 27.9166 6.25016Z" fill="#0F0F0F"/>
</svg>
